<svg width="12" height="14" viewBox="0 0 12 14" fill="none" xmlns="http://www.w3.org/2000/svg">
<path d="M5.2 13C5.2 13.4418 5.55817 13.8 6 13.8C6.44183 13.8 6.8 13.4418 6.8 13H5.2ZM6.56569 0.434315C6.25327 0.121895 5.74673 0.121895 5.43431 0.434315L0.343146 5.52548C0.0307262 5.8379 0.0307262 6.34443 0.343146 6.65685C0.655565 6.96927 1.1621 6.96927 1.47452 6.65685L6 2.13137L10.5255 6.65685C10.8379 6.96927 11.3444 6.96927 11.6569 6.65685C11.9693 6.34443 11.9693 5.8379 11.6569 5.52548L6.56569 0.434315ZM6.8 13L6.8 1H5.2L5.2 13H6.8Z" fill="white"/>
</svg>
