<svg width="356" height="95" fill="none" xmlns="http://www.w3.org/2000/svg"><path d="M15.965 15.97h59.787a9.964 9.964 0 019.965 9.965v44.84a4.982 4.982 0 01-4.982 4.983H70.77a4.982 4.982 0 01-4.982-4.982V60.81a19.93 19.93 0 00-39.859 0v9.965a4.982 4.982 0 01-4.982 4.982h-9.965A4.982 4.982 0 016 70.776v-44.84a9.965 9.965 0 019.965-9.966" fill="#fff"/><path d="M15.965 15.97h59.787a9.964 9.964 0 019.965 9.965v44.84a4.982 4.982 0 01-4.982 4.983H70.77a4.982 4.982 0 01-4.982-4.982V60.81a19.93 19.93 0 00-39.859 0v9.965a4.982 4.982 0 01-4.982 4.982h-9.965A4.982 4.982 0 016 70.776v-44.84a9.965 9.965 0 019.965-9.966" stroke="#fff" stroke-width="11.269" stroke-linecap="round" stroke-linejoin="round"/><path d="M110.701 75V18.364h22.676c4.167 0 7.642.618 10.426 1.853 2.783 1.236 4.876 2.95 6.277 5.144 1.401 2.175 2.102 4.683 2.102 7.522 0 2.212-.443 4.157-1.328 5.835a11.453 11.453 0 01-3.65 4.093c-1.53 1.05-3.282 1.797-5.254 2.24v.553c2.157.092 4.176.7 6.056 1.825 1.899 1.124 3.438 2.7 4.618 4.729 1.18 2.01 1.77 4.406 1.77 7.19 0 3.005-.747 5.687-2.24 8.047-1.475 2.342-3.659 4.194-6.554 5.559-2.894 1.364-6.462 2.046-10.702 2.046h-24.197zm11.974-9.79h9.762c3.337 0 5.77-.636 7.3-1.908 1.531-1.29 2.296-3.005 2.296-5.143 0-1.567-.378-2.95-1.134-4.148-.756-1.199-1.834-2.139-3.236-2.821-1.382-.682-3.032-1.023-4.95-1.023h-10.038V65.21zm0-23.146h8.877c1.641 0 3.097-.286 4.369-.857 1.291-.59 2.305-1.42 3.042-2.49.756-1.068 1.134-2.35 1.134-3.843 0-2.046-.728-3.696-2.185-4.95-1.438-1.254-3.484-1.88-6.139-1.88h-9.098v14.02zM161.964 75V32.523h11.422v7.412h.442c.774-2.637 2.074-4.628 3.899-5.974 1.825-1.364 3.927-2.046 6.305-2.046.59 0 1.226.037 1.908.11.683.074 1.282.176 1.798.305v10.453c-.553-.166-1.318-.313-2.295-.442a20.62 20.62 0 00-2.683-.194c-1.733 0-3.281.378-4.646 1.134a8.347 8.347 0 00-3.207 3.097c-.775 1.328-1.162 2.858-1.162 4.59V75h-11.781zm31.865 0V32.523h11.78V75h-11.78zm5.918-47.952c-1.752 0-3.254-.58-4.508-1.742-1.235-1.18-1.853-2.59-1.853-4.231 0-1.623.618-3.015 1.853-4.176 1.254-1.18 2.756-1.77 4.508-1.77 1.751 0 3.245.59 4.48 1.77 1.253 1.161 1.88 2.553 1.88 4.176 0 1.64-.627 3.05-1.88 4.23-1.235 1.162-2.729 1.743-4.48 1.743zm30.952 48.643c-3.227 0-6.149-.83-8.767-2.489-2.599-1.677-4.664-4.138-6.194-7.383-1.512-3.263-2.268-7.264-2.268-12.002 0-4.867.784-8.914 2.351-12.14 1.567-3.245 3.65-5.67 6.249-7.273 2.618-1.623 5.485-2.434 8.601-2.434 2.378 0 4.36.406 5.946 1.217 1.603.793 2.894 1.788 3.871 2.987.996 1.18 1.752 2.341 2.268 3.484h.359V18.364h11.753V75h-11.615v-6.803h-.497c-.553 1.18-1.337 2.35-2.351 3.512-.995 1.143-2.295 2.093-3.899 2.849-1.586.755-3.521 1.133-5.807 1.133zm3.733-9.374c1.899 0 3.503-.517 4.812-1.549 1.327-1.05 2.341-2.517 3.042-4.397.719-1.88 1.078-4.084 1.078-6.61 0-2.525-.35-4.719-1.051-6.581-.7-1.862-1.714-3.3-3.042-4.314-1.327-1.014-2.94-1.521-4.839-1.521-1.936 0-3.568.526-4.895 1.576-1.327 1.051-2.332 2.508-3.014 4.37-.682 1.862-1.023 4.019-1.023 6.47 0 2.471.341 4.656 1.023 6.555.7 1.88 1.705 3.355 3.014 4.424 1.327 1.051 2.959 1.577 4.895 1.577zm49.259 25.497c-3.817 0-7.089-.526-9.818-1.577-2.71-1.032-4.867-2.442-6.471-4.23-1.604-1.789-2.645-3.799-3.125-6.03l10.896-1.465c.332.848.857 1.64 1.576 2.378.719.738 1.669 1.328 2.849 1.77 1.198.461 2.655.692 4.369.692 2.563 0 4.674-.627 6.333-1.881 1.678-1.235 2.516-3.31 2.516-6.222v-7.77h-.497c-.517 1.179-1.291 2.294-2.323 3.345-1.033 1.051-2.36 1.908-3.982 2.572-1.623.664-3.559.996-5.808.996-3.189 0-6.093-.738-8.711-2.213-2.599-1.493-4.673-3.77-6.222-6.83-1.53-3.08-2.295-6.97-2.295-11.67 0-4.812.783-8.831 2.35-12.057 1.567-3.227 3.651-5.642 6.25-7.246 2.618-1.604 5.485-2.406 8.601-2.406 2.378 0 4.369.406 5.973 1.217 1.604.793 2.894 1.788 3.871 2.987.996 1.18 1.761 2.341 2.296 3.484h.442v-7.135h11.698v42.892c0 3.613-.885 6.637-2.655 9.07-1.77 2.434-4.222 4.26-7.356 5.476-3.116 1.235-6.701 1.853-10.757 1.853zm.249-26.272c1.898 0 3.502-.47 4.811-1.41 1.328-.959 2.342-2.323 3.042-4.093.719-1.788 1.079-3.927 1.079-6.416 0-2.488-.351-4.645-1.051-6.47-.701-1.844-1.715-3.273-3.042-4.287-1.327-1.014-2.941-1.521-4.839-1.521-1.936 0-3.568.526-4.895 1.576-1.328 1.033-2.332 2.47-3.015 4.314-.682 1.844-1.023 3.973-1.023 6.388 0 2.452.341 4.573 1.023 6.36.701 1.77 1.706 3.144 3.015 4.121 1.327.959 2.959 1.438 4.895 1.438zm49.251 10.288c-4.369 0-8.13-.885-11.282-2.655-3.135-1.788-5.55-4.314-7.246-7.577-1.696-3.282-2.544-7.163-2.544-11.643 0-4.37.848-8.204 2.544-11.504 1.696-3.3 4.084-5.872 7.163-7.715 3.097-1.844 6.729-2.766 10.895-2.766 2.803 0 5.411.452 7.826 1.355a17.361 17.361 0 016.361 4.01c1.825 1.788 3.245 4.038 4.258 6.748 1.014 2.691 1.521 5.844 1.521 9.458v3.235H316.82v-7.3h24.778c0-1.697-.369-3.2-1.106-4.508a7.92 7.92 0 00-3.07-3.07c-1.29-.756-2.793-1.134-4.507-1.134-1.788 0-3.374.415-4.757 1.245a8.733 8.733 0 00-3.208 3.29c-.774 1.365-1.17 2.886-1.189 4.563v6.942c0 2.101.387 3.917 1.162 5.447.793 1.53 1.908 2.71 3.346 3.54 1.438.83 3.143 1.245 5.116 1.245 1.309 0 2.507-.185 3.595-.553 1.088-.37 2.019-.922 2.793-1.66.774-.737 1.364-1.64 1.77-2.71l10.896.72c-.554 2.617-1.687 4.903-3.402 6.857-1.696 1.936-3.89 3.448-6.582 4.536-2.673 1.069-5.761 1.604-9.264 1.604z" fill="#fff"/></svg>
